<svg xmlns="http://www.w3.org/2000/svg" xmlns:xlink="http://www.w3.org/1999/xlink" version="1.1" width="256" height="256" viewBox="0 0 256 256" xml:space="preserve">
<desc>Created with Fabric.js 1.7.22</desc>
<defs>
</defs>
<g transform="translate(128 128) scale(0.72 0.72)" style="">
	<g style="stroke: none; stroke-width: 0; stroke-dasharray: none; stroke-linecap: butt; stroke-linejoin: miter; stroke-miterlimit: 10; fill: none; fill-rule: nonzero; opacity: 1;" transform="translate(-175.05 -175.05) scale(3.89 3.89)" >
	<path d="M 89 17.583 H 29.307 c -0.552 0 -1 -0.448 -1 -1 s 0.448 -1 1 -1 H 89 c 0.553 0 1 0.448 1 1 S 89.553 17.583 89 17.583 z" style="stroke: none; stroke-width: 1; stroke-dasharray: none; stroke-linecap: butt; stroke-linejoin: miter; stroke-miterlimit: 10; fill: rgb(0,0,0); fill-rule: nonzero; opacity: 1;" transform=" matrix(1 0 0 1 0 0) " stroke-linecap="round" />
	<path d="M 89 46 H 29.307 c -0.552 0 -1 -0.448 -1 -1 s 0.448 -1 1 -1 H 89 c 0.553 0 1 0.448 1 1 S 89.553 46 89 46 z" style="stroke: none; stroke-width: 1; stroke-dasharray: none; stroke-linecap: butt; stroke-linejoin: miter; stroke-miterlimit: 10; fill: rgb(0,0,0); fill-rule: nonzero; opacity: 1;" transform=" matrix(1 0 0 1 0 0) " stroke-linecap="round" />
	<path d="M 89 74.418 H 29.307 c -0.552 0 -1 -0.447 -1 -1 s 0.448 -1 1 -1 H 89 c 0.553 0 1 0.447 1 1 S 89.553 74.418 89 74.418 z" style="stroke: none; stroke-width: 1; stroke-dasharray: none; stroke-linecap: butt; stroke-linejoin: miter; stroke-miterlimit: 10; fill: rgb(0,0,0); fill-rule: nonzero; opacity: 1;" transform=" matrix(1 0 0 1 0 0) " stroke-linecap="round" />
	<path d="M 8.75 25.333 c -4.825 0 -8.75 -3.925 -8.75 -8.75 c 0 -4.825 3.925 -8.75 8.75 -8.75 c 4.825 0 8.75 3.925 8.75 8.75 C 17.5 21.407 13.575 25.333 8.75 25.333 z M 8.75 9.832 C 5.028 9.832 2 12.86 2 16.583 s 3.028 6.75 6.75 6.75 s 6.75 -3.028 6.75 -6.75 S 12.472 9.832 8.75 9.832 z" style="stroke: none; stroke-width: 1; stroke-dasharray: none; stroke-linecap: butt; stroke-linejoin: miter; stroke-miterlimit: 10; fill: rgb(0,0,0); fill-rule: nonzero; opacity: 1;" transform=" matrix(1 0 0 1 0 0) " stroke-linecap="round" />
	<path d="M 8.75 53.75 C 3.925 53.75 0 49.825 0 45 c 0 -4.825 3.925 -8.75 8.75 -8.75 c 4.825 0 8.75 3.925 8.75 8.75 C 17.5 49.825 13.575 53.75 8.75 53.75 z M 8.75 38.25 C 5.028 38.25 2 41.278 2 45 c 0 3.722 3.028 6.75 6.75 6.75 S 15.5 48.722 15.5 45 C 15.5 41.278 12.472 38.25 8.75 38.25 z" style="stroke: none; stroke-width: 1; stroke-dasharray: none; stroke-linecap: butt; stroke-linejoin: miter; stroke-miterlimit: 10; fill: rgb(0,0,0); fill-rule: nonzero; opacity: 1;" transform=" matrix(1 0 0 1 0 0) " stroke-linecap="round" />
	<path d="M 8.75 82.168 c -4.825 0 -8.75 -3.925 -8.75 -8.75 s 3.925 -8.751 8.75 -8.751 c 4.825 0 8.75 3.926 8.75 8.751 S 13.575 82.168 8.75 82.168 z M 8.75 66.667 c -3.722 0 -6.75 3.028 -6.75 6.751 c 0 3.722 3.028 6.75 6.75 6.75 s 6.75 -3.028 6.75 -6.75 C 15.5 69.695 12.472 66.667 8.75 66.667 z" style="stroke: none; stroke-width: 1; stroke-dasharray: none; stroke-linecap: butt; stroke-linejoin: miter; stroke-miterlimit: 10; fill: rgb(0,0,0); fill-rule: nonzero; opacity: 1;" transform=" matrix(1 0 0 1 0 0) " stroke-linecap="round" />
</g>
</g>
</svg>