<svg width="192" height="253" viewBox="0 0 192 253" fill="none" xmlns="http://www.w3.org/2000/svg">
<path d="M184.758 8.06911H130.299V6.75553C130.299 3.02486 127.274 0 123.543 0H67.9698C64.2391 0 61.2143 3.02486 61.2143 6.75553V8.06911H6.75553C3.02486 8.06911 0 11.094 0 14.8246V41.5051C0 45.2357 3.02486 48.2606 6.75553 48.2606H184.758C188.488 48.2606 191.513 45.2357 191.513 41.5051V14.8246C191.513 11.094 188.488 8.06911 184.758 8.06911Z" fill="#FF0000"/>
<path d="M174.607 62.2606H16.9056C13.175 62.2606 10.1501 65.2855 10.1501 69.0162V245.626C10.1501 249.357 13.175 252.382 16.9056 252.382H174.607C178.338 252.382 181.363 249.357 181.363 245.626V69.0162C181.363 65.2855 178.338 62.2606 174.607 62.2606ZM63.6678 228.071C63.6678 231.801 60.6429 234.826 56.9123 234.826H50.6245C46.8938 234.826 43.8689 231.801 43.8689 228.071V86.5716C43.8689 82.8409 46.8938 79.816 50.6245 79.816H56.9123C60.6429 79.816 63.6678 82.8409 63.6678 86.5716V228.071ZM105.657 228.071C105.657 231.801 102.633 234.826 98.9019 234.826H92.614C88.8834 234.826 85.8585 231.801 85.8585 228.071V86.5716C85.8585 82.8409 88.8834 79.816 92.614 79.816H98.9019C102.633 79.816 105.657 82.8409 105.657 86.5716V228.071ZM147.644 228.071C147.644 231.801 144.619 234.826 140.889 234.826H134.601C130.87 234.826 127.845 231.801 127.845 228.071V86.5716C127.845 82.8409 130.87 79.816 134.601 79.816H140.889C144.619 79.816 147.644 82.8409 147.644 86.5716V228.071Z" fill="#FF0000"/>
</svg>
