<?xml version="1.0" encoding="iso-8859-1"?>
<!-- Generator: Adobe Illustrator 19.0.0, SVG Export Plug-In . SVG Version: 6.00 Build 0)  -->
<svg version="1.1" id="Layer_1" xmlns="http://www.w3.org/2000/svg" xmlns:xlink="http://www.w3.org/1999/xlink" x="0px" y="0px"
	 viewBox="0 0 507.957 507.957" style="enable-background:new 0 0 507.957 507.957;" xml:space="preserve">
<path style="fill:#4CDBC4;" d="M457.778,156.757l-38.5-140.9c-3.1-11.5-15-18.2-26.5-15.1l-339.7,92.8c-11.5,3.1-18.2,15-15.1,26.5
	l10,36.7H457.778z"/>
<path style="fill:#F2F2F2;" d="M82.978,156.757h318.6c5.1-7,12.6-12.4,21.6-14.8l-19.5-71.2c-21.3,5.8-43.2-6.7-49-28l-253.4,69.2
	C106.078,129.557,98.078,147.757,82.978,156.757z"/>
<g>
	<circle style="fill:#4CDBC4;" cx="333.378" cy="128.057" r="14.7"/>
	<path style="fill:#4CDBC4;" d="M296.578,156.757c-0.3-5.8-1.3-11.8-2.9-17.8c-9.4-34.3-37.4-56.6-62.5-49.7
		c-23.4,6.4-36.1,35.8-30.1,67.5H296.578z"/>
</g>
<path style="fill:#F2F2F2;" d="M231.478,151.657c3.6,2.6,8.4,3.9,14.6,4l0.3,1.1h6.8l-0.3-0.9c1.9,0,3.5,0.4,4.8,0.9h14.8
	c-1.3-4.2-3.5-7.5-6.7-9.7c-3.4-2.4-8.8-3.5-16.3-3.5l-4.7-17.1c3.2,0.5,5.5,2.3,7.2,5.6l10.7-4.5c-2-4.2-4.7-7.2-8.1-9
	c-3.5-1.9-7.6-2.4-12.4-1.7l-1.2-4.3l-6.3,1.7l1.2,4.3c-4.9,1.9-8.4,4.8-10.5,8.9c-2.2,4.1-2.5,8.5-1.2,13.3
	C225.478,145.457,227.878,149.057,231.478,151.657z M235.278,132.157c0.6-1.7,1.7-3.1,3.3-4.1l4.1,15.1c-2.1-0.3-3.8-1-5.1-2
	c-1.3-1.1-2.2-2.4-2.6-3.9C234.478,135.557,234.578,133.857,235.278,132.157z"/>
<g>
	<path style="fill:#334A5E;" d="M499.478,211.957v-36.5c0-11.7-9.5-21.3-21.3-21.3h-456c-11.7,0-21.3,9.5-21.3,21.3v36.5H499.478z"
		/>
	<path style="fill:#334A5E;" d="M0.878,450.157v36.5c0,11.7,9.5,21.3,21.3,21.3h456c11.7,0,21.3-9.5,21.3-21.3v-36.5H0.878z"/>
</g>
<g>
	<polygon style="fill:#40596B;" points="64.678,507.957 64.678,507.957 435.678,507.957 435.678,507.957 	"/>
	<path style="fill:#40596B;" d="M499.078,211.957H1.178c-0.2,2-0.3,4-0.3,6v226.2c0,2,0.1,4,0.3,6h497.9c0.2-2,0.3-4,0.3-6v-226.2
		C499.478,215.957,499.278,213.957,499.078,211.957z"/>
</g>
<path style="fill:#ACB3BA;" d="M507.078,288.357v85.4h-81.5c-0.5,0-1,0-1.4,0c-20.4-0.7-37.2-15.6-40.6-35.2
	c-0.5-2.4-0.7-4.9-0.7-7.4c0-11.8,4.8-22.4,12.5-30.2c7.7-7.8,18.4-12.5,30.2-12.5h81.5V288.357z"/>
<circle style="fill:#FFFFFF;" cx="428.978" cy="331.057" r="26.8"/>
<g>
</g>
<g>
</g>
<g>
</g>
<g>
</g>
<g>
</g>
<g>
</g>
<g>
</g>
<g>
</g>
<g>
</g>
<g>
</g>
<g>
</g>
<g>
</g>
<g>
</g>
<g>
</g>
<g>
</g>
</svg>
